<svg width="18" height="18" viewBox="0 0 18 18" fill="none" xmlns="http://www.w3.org/2000/svg">
<path fill-rule="evenodd" clip-rule="evenodd" d="M9 0H0V9C0 13.9705 4.0293 18 9 18C13.9707 18 18 13.9705 18 9C18 4.0293 13.9707 0 9 0ZM10.2325 14.9211H7.92473V12.674H10.2325V14.9211ZM11.1652 9.65948C12.1066 8.89717 12.7213 8.29507 13.0088 7.85273C13.2962 7.41037 13.4397 6.94125 13.4399 6.44512C13.4399 5.5494 13.0484 4.7646 12.2656 4.09027C11.4826 3.41572 10.4288 3.07845 9.1035 3.07845C7.84395 3.07845 6.82695 3.4119 6.05227 4.07812C5.2776 4.74458 4.86022 5.5548 4.79992 6.50902L6.91875 6.76485C7.06658 6.09862 7.33747 5.60273 7.7319 5.2776C8.12632 4.95225 8.61637 4.7898 9.20205 4.7898C9.80977 4.7898 10.2928 4.94572 10.6513 5.2578C11.0101 5.56965 11.1895 5.94405 11.1895 6.38122C11.1895 6.69578 11.0882 6.98378 10.8855 7.24477C10.7541 7.41015 10.3516 7.75935 9.67838 8.29237C9.00495 8.8254 8.55608 9.30488 8.33152 9.73147C8.10697 10.1579 7.9947 10.7019 7.9947 11.363C7.9947 11.4266 7.99762 11.6053 8.00303 11.8984H10.0975C10.0865 11.2801 10.1396 10.8509 10.2573 10.6112C10.3752 10.3712 10.6776 10.0541 11.1652 9.65948Z" fill="#4EBFD7"/>
</svg>
