<svg width="95" height="62" viewBox="0 0 95 62" fill="none" xmlns="http://www.w3.org/2000/svg">
<path fill-rule="evenodd" clip-rule="evenodd" d="M25.1368 32.7916V37.8656H21.0525C16.3744 37.8656 13.5001 35.0163 13.5001 30.34V21.3708H9.65576V20.1392L18.0529 11.2902H19.1518V16.7899H25.0187V21.3708H19.2487V29.5843C19.2487 31.6206 20.43 32.7916 22.5239 32.7916H25.1368Z" fill="white"/>
<path fill-rule="evenodd" clip-rule="evenodd" d="M49.0774 27.4547C49.0774 24.1475 46.6761 21.6843 43.4005 21.6843C40.1249 21.6843 37.7167 24.1549 37.7167 27.4547C37.7167 30.7545 40.1249 33.2248 43.4005 33.2248C46.6761 33.2248 49.0774 30.7616 49.0774 27.4547ZM54.6032 16.928V37.9814H50.1834L49.6987 36.0979C47.9082 37.6807 45.5717 38.6089 42.9408 38.6089C36.6675 38.6089 32.0016 33.8271 32.0016 27.4547C32.0016 21.1065 36.6675 16.3643 42.9408 16.3643C45.6175 16.3643 47.9895 17.3167 49.7921 18.9392L50.3947 16.9275L54.6032 16.928Z" fill="white"/>
<path fill-rule="evenodd" clip-rule="evenodd" d="M59.9441 29.1235V16.9595H65.8016V28.4752C65.8016 31.4699 67.4319 33.2563 70.1385 33.2563C72.8518 33.2563 74.4422 31.4309 74.4422 28.4752V16.9595H80.2997V29.1235C80.2997 34.8088 76.2657 38.6088 70.1385 38.6088C64.0183 38.6088 59.9441 34.8088 59.9441 29.1235Z" fill="white"/>
<path fill-rule="evenodd" clip-rule="evenodd" d="M94.6003 61.4398L91.0213 60.5568C91.028 60.5281 91.8755 56.8395 89.7942 54.2148C88.2272 52.2383 85.3266 51.2364 81.1734 51.2364C76.563 51.2364 73.1142 49.7981 70.9236 46.9614C66.857 41.6957 68.9312 33.6496 69.0216 33.3096L72.5858 34.25L70.8036 33.7798L72.5867 34.2468C72.5692 34.3129 70.89 40.9074 73.8525 44.729C75.3094 46.6086 77.7726 47.5613 81.1734 47.5613C86.5339 47.5613 90.4171 49.0451 92.7148 51.9714C95.897 56.0241 94.6547 61.2206 94.6003 61.4398Z" fill="white"/>
<path fill-rule="evenodd" clip-rule="evenodd" d="M63 36H77V24H63V36Z" fill="white"/>
</svg>
